<svg width="1119" height="1151" viewBox="0 0 1119 1151" fill="none" xmlns="http://www.w3.org/2000/svg">
<path d="M559.392 575.351C-63.5498 826.813 -92.5804 412.796 559.392 575.351Z" fill="#459F30"/>
<path d="M559.392 575.351C203.299 1144.79 -63.55 826.813 559.392 575.351Z" fill="#459F30"/>
<path d="M559.392 575.352C606.24 1245.25 203.299 1144.79 559.392 575.352Z" fill="#459F30"/>
<path d="M559.392 575.352C127.421 60.871 -92.5804 412.797 559.392 575.352Z" fill="#459F30"/>
<path d="M559.392 575.352C991.132 1089.77 606.24 1245.25 559.392 575.352Z" fill="#459F30"/>
<path d="M559.392 575.351C512.314 -94.6052 127.421 60.8707 559.392 575.351Z" fill="#459F30"/>
<path d="M559.392 575.351C1211.13 737.849 1182.1 323.833 559.392 575.351Z" fill="#459F30"/>
<path d="M559.392 575.352C1211.13 737.849 991.132 1089.77 559.392 575.352Z" fill="#459F30"/>
<path d="M559.392 575.351C915.255 5.85917 512.314 -94.6053 559.392 575.351Z" fill="#459F30"/>
<path d="M559.392 575.351C1182.1 323.833 915.255 5.85933 559.392 575.351Z" fill="#459F30"/>
</svg>
