<svg width="490" height="533" viewBox="0 0 490 533" fill="none" xmlns="http://www.w3.org/2000/svg">
<path d="M250.696 413.184L300.242 446.35C327.399 464.51 363.455 443.606 361.371 411.041L357.527 351.556C356.644 338.606 362.238 326.133 372.473 318.026L419.289 281.11C444.876 260.841 436.213 220.033 404.624 212.019L346.819 197.27C334.3 194.118 324.053 184.877 319.613 172.778L298.977 116.835C287.709 86.2632 246.15 81.8952 228.771 109.456L196.955 159.886C189.985 170.888 178.152 177.706 165.252 178.187L105.644 180.595C73.0788 181.866 56.1207 219.981 76.9342 245.127L115.052 290.969C123.287 300.916 126.155 314.381 122.7 326.875L106.572 384.26C97.7625 415.681 128.684 443.624 159.024 431.507L214.383 409.367C226.306 404.6 239.924 406.031 250.696 413.184Z" fill="#FF2323"/>
</svg>
