<svg width="202" height="124" viewBox="0 0 202 124" fill="none" xmlns="http://www.w3.org/2000/svg">
<path d="M43.3983 32.8036C48.07 30.8375 53.4461 30.2875 58.7571 31.2325C64.2062 32.2005 69.2266 34.886 72.8654 38.779L64.2157 41.9301C63.5666 38.611 63.7263 35.2649 64.6839 32.1213C65.693 28.9763 67.5278 26.1398 70.0457 23.832C73.1443 20.9528 77.1219 18.9224 81.5695 17.9495C86.0171 16.9767 90.7741 17.0965 95.3515 18.2967C97.3015 18.8269 99.1897 19.5637 100.973 20.4905C104.486 22.3541 107.523 24.8888 109.84 27.8913L102.122 28.773C103.142 24.8341 104.542 21.0052 106.305 17.3266C107.213 15.5034 108.251 13.7406 109.414 12.0482C110.631 10.3157 112.025 8.69293 113.579 7.19801C115.194 5.64538 117.034 4.28917 119.056 3.1594C121.156 1.99186 123.469 1.12675 125.917 0.593196C128.396 0.0600101 130.987 -0.115384 133.594 0.0734645C136.155 0.269081 138.701 0.788855 141.154 1.61686C145.866 3.23932 150.211 5.71426 153.897 8.87447C157.474 11.9136 160.525 15.4027 162.934 19.2096C165.334 22.9683 167.139 26.9704 168.294 31.0931C169.455 35.2053 169.99 39.3933 169.885 43.5418C169.818 45.608 169.609 47.6585 169.258 49.6819C168.884 51.694 168.378 53.6758 167.742 55.6175L158.627 51.4913C160.421 48.8226 162.789 46.5155 165.61 44.6883C168.706 42.7177 172.443 41.6156 176.387 41.5103C180.32 41.4739 184.276 42.4097 187.816 44.2136C191.157 45.903 194.118 48.1667 196.509 50.8594C201.054 56.063 203.726 62.283 204.139 68.6198C204.335 71.6792 204.097 74.7171 203.433 77.6623L202.872 79.8239C202.671 80.5388 202.39 81.2207 202.149 81.9196L201.771 82.9608C201.641 83.3063 201.47 83.6308 201.321 83.9664L200.389 85.9618C199.81 87.0368 199.183 88.0839 198.574 89.1426L196.497 92.1447L189.151 85.0313C191.836 83.7613 194.77 82.9009 197.84 82.4832C201.113 82.0447 204.516 82.2793 207.795 83.1694C211.073 84.0595 214.141 85.582 216.769 87.6227C219.352 89.6119 221.495 92.0123 223.07 94.6796C224.645 97.3469 225.62 100.226 225.935 103.144C226.273 106.13 225.847 109.091 224.691 111.804C223.534 114.516 221.677 116.911 219.258 118.808C216.979 120.586 214.362 122.003 211.506 123.003C211.38 123.049 211.251 123.089 211.122 123.122L211.097 123.128C209.285 123.589 207.405 123.871 205.492 123.969C203.665 124.049 201.821 123.983 199.982 123.773C196.591 123.355 193.23 122.639 189.946 121.636C186.788 120.713 183.902 119.718 180.988 118.784L172.243 115.936L137.264 104.533L67.3117 81.7023C56.9538 78.3234 46.6129 74.598 36.5048 70.9467C26.8247 67.4462 20.8913 64.3216 17.4979 61.6567C12.5592 57.7757 19.1626 57.4977 33.226 61.5035C42.1264 64.0371 51.7163 67.16 60.7442 70.2388C102.323 84.4083 144.058 97.9041 185.947 110.726C189.737 111.985 193.599 113.018 197.506 113.816C201.162 114.48 204.484 114.545 207.21 113.81L206.8 113.936C209.272 113.096 211.456 111.761 213.192 110.028C214.959 108.074 215.774 105.539 215.475 102.928C215.126 100.152 213.772 97.4791 211.617 95.3148C209.519 93.1974 206.666 91.788 203.617 91.3623C200.604 90.9579 197.41 91.6269 194.42 92.989L194.357 93.0178C193.45 93.4309 192.387 93.5483 191.34 93.3509C190.293 93.1535 189.323 92.6528 188.587 91.9301C187.852 91.2073 187.393 90.3047 187.286 89.3683C187.18 88.4319 187.43 87.5166 187.998 86.7705C190.517 83.5265 192.351 79.8763 193.42 75.9792C193.931 74.0931 194.203 72.1464 194.231 70.1736C194.231 68.2387 193.987 66.2924 193.505 64.3703C192.978 62.4941 192.192 60.6648 191.168 58.9247C190.166 57.233 188.875 55.6735 187.347 54.3059C184.374 51.6166 180.555 49.9591 177.016 50.072C174.927 50.1492 172.953 50.7481 171.316 51.8006C169.479 53.0019 167.924 54.5025 166.727 56.232L166.663 56.3196C166.11 57.0805 165.245 57.6134 164.232 57.8186C163.218 58.0237 162.124 57.887 161.155 57.4341C160.186 56.9812 159.409 56.2431 158.968 55.3579C158.527 54.4728 158.453 53.5013 158.76 52.6253C160.218 48.4958 160.855 44.1195 160.644 39.6817C160.425 35.2584 159.31 30.8415 157.35 26.6427C155.435 22.4754 152.64 18.6178 149.126 15.2904C145.651 12.0506 141.438 9.47734 137.026 8.30061C133.781 7.41502 130.39 7.40042 127.296 8.25874C124.108 9.23355 121.317 10.9291 119.18 13.1879C118.008 14.3587 116.965 15.6287 116.064 16.9827C115.578 17.6515 115.17 18.3811 114.73 19.0869C114.338 19.8262 113.906 20.5418 113.555 21.3092C112.074 24.3897 110.899 27.5966 110.042 30.896L110.029 30.9446C109.866 31.5559 109.504 32.0982 108.985 32.5069C108.467 32.9155 107.814 33.1733 107.105 33.2493C106.396 33.3253 105.661 33.2164 104.987 32.9356C104.313 32.6549 103.728 32.214 103.304 31.6657C101.108 28.7439 97.8833 26.5178 94.1931 25.3767C90.402 24.3092 86.4228 24.3192 82.8358 25.4053C79.2488 26.4914 76.2414 28.5967 74.2521 31.4144C72.3535 34.2826 71.7112 37.7357 72.4377 41.1693L72.4495 41.2283C72.5748 41.8712 72.4625 42.5157 72.1299 43.064C71.7972 43.6123 71.2623 44.0344 70.6064 44.2662C69.9505 44.4981 69.2094 44.5269 68.4958 44.3484C67.7823 44.1698 67.1351 43.7937 66.6527 43.2771C64.7611 41.2491 62.2535 39.7406 59.4741 38.9583C56.5964 38.1816 53.5994 38.0798 50.7877 38.6634C47.9761 39.2469 45.45 40.4949 43.4663 42.2806C41.5356 44.0594 40.3234 46.371 39.9962 48.8983C39.9281 49.4205 39.6853 49.9007 39.2984 50.2785C38.9115 50.6563 38.3977 50.9149 37.8214 51.0219C37.2451 51.1289 36.632 51.0795 36.059 50.8799C35.4861 50.6803 34.9788 50.3394 34.6008 49.9L34.5811 49.8771L33.845 49.0166C31.1005 45.8106 27.564 43.1878 23.5447 41.3774C21.6617 40.5793 19.6565 40.0857 17.6299 39.9216C17.1356 39.8804 16.6414 39.8666 16.1502 39.8805C15.6848 39.8769 15.2233 39.9098 14.771 39.9787C13.8519 40.1116 12.968 40.3573 12.1437 40.7087C10.4281 41.4269 8.94943 42.4934 7.81775 43.8287C6.68606 45.164 5.9305 46.7338 5.60731 48.4212C5.33579 50.1062 5.74627 51.8706 6.76786 53.4098C7.28933 54.2394 7.86859 55.0424 8.50195 55.8136C9.15164 56.5614 9.92247 57.2229 10.786 57.7736C11.5817 58.2964 12.3125 58.7294 12.9135 59.1155C13.4216 59.436 13.9042 59.7888 14.3571 60.1708C15.0779 60.797 15.3167 61.2607 15.0643 61.5135C14.8118 61.7663 14.0667 61.808 12.8244 61.5899C12.0478 61.4547 11.2801 61.2633 10.5291 61.0175C9.32635 60.6337 8.18105 60.0957 7.13169 59.4217C6.24664 58.8341 5.42952 58.1669 4.69509 57.4322C4.01701 56.7626 3.45993 56.1383 2.92391 55.5358C2.20795 54.6938 1.60748 53.7835 1.13665 52.8265C0.671981 51.8594 0.347076 50.8528 0.17017 49.8321C-0.159549 47.864 -0.00892873 45.8904 0.611662 44.0471C1.19569 42.2869 2.11793 40.6504 3.33993 39.206C4.56705 37.7514 6.07103 36.5043 7.79249 35.5138C9.6115 34.4632 11.6749 33.7567 13.8661 33.4344C14.4025 33.3567 14.9458 33.3059 15.4935 33.2822C16.018 33.2383 16.5473 33.2217 17.079 33.2325C17.6089 33.2464 18.1422 33.2507 18.672 33.2848L20.2557 33.4527C22.3196 33.7494 24.355 34.2682 26.3158 34.9975C29.3023 36.1551 32.102 37.7094 34.6119 39.6031C37.0476 41.455 39.2388 43.5495 41.1356 45.8388L31.7344 47.538C31.9453 45.9451 32.3623 44.3935 32.9774 42.913C33.622 41.4385 34.4699 40.0522 35.5032 38.7836C37.551 36.3113 40.2397 34.3261 43.3699 32.9752C43.376 32.9174 43.3854 32.8601 43.3983 32.8036Z" fill="black"/>
</svg>
