<svg width="237" height="59" viewBox="0 0 237 59" fill="none" xmlns="http://www.w3.org/2000/svg">
<g clip-path="url(#clip0_51_337)">
<path d="M13.1484 31.7466H8.2086V9.68198H13.1484V31.7466ZM21.3486 14.1278H0.00847574V9.68198H21.3486V14.1278ZM28.0595 31.7466H23.1197V9.68198H28.0595V31.7466ZM35.5851 31.7466H30.6452V9.68198H35.9144L43.8181 20.1215L46.8479 24.7649H47.2102L46.9796 20.3191V9.68198H51.9195V31.7466H46.6503L38.516 21.2083L35.7168 17.0588H35.3875L35.5851 21.1095V31.7466ZM76.6709 31.7466H70.7431L65.0458 23.2501H58.0642V18.442H64.9799L70.8419 9.68198H76.7697L69.0965 20.5496L76.6709 31.7466ZM59.4802 31.7466H54.5404V9.68198H59.4802V31.7466ZM82.9573 31.7466H78.0175V9.68198H82.9573V31.7466ZM96.6901 31.7466H79.4007V27.3007H96.6901V31.7466ZM96.1961 22.8549H79.4007V18.442H96.1961V22.8549ZM96.6901 14.1278H79.4007V9.68198H96.6901V14.1278ZM103.862 31.7466H98.9218V9.68198H111.107C112.929 9.68198 114.477 9.94544 115.75 10.4724C117.024 10.9773 117.99 11.7238 118.648 12.7117C119.307 13.6997 119.636 14.8962 119.636 16.3014C119.636 17.5089 119.406 18.5408 118.945 19.397C118.484 20.2532 117.792 20.9448 116.87 21.4717C115.948 21.9767 114.795 22.295 113.412 22.4268V22.6902C114.4 22.9537 115.135 23.3489 115.618 23.8758C116.101 24.4027 116.551 25.0504 116.969 25.8188L120.163 31.7466H114.433L111.403 26.0164C111.096 25.4455 110.777 24.9955 110.448 24.6661C110.119 24.3368 109.691 24.1063 109.164 23.9746C108.659 23.8209 107.978 23.744 107.122 23.744H103.862V31.7466ZM103.862 14.1278V20.0227H111.074C112.237 20.0227 113.094 19.8251 113.642 19.4299C114.191 19.0128 114.466 18.2224 114.466 17.0588C114.466 15.9611 114.191 15.2036 113.642 14.7865C113.094 14.3474 112.237 14.1278 111.074 14.1278H103.862ZM131.735 32.0759C129.517 32.0759 127.629 31.7905 126.071 31.2197C124.512 30.6269 123.326 29.7597 122.514 28.618C121.702 27.4544 121.295 26.0164 121.295 24.3039V24.1063H126.235V24.6991C126.235 25.3797 126.378 25.9286 126.663 26.3457C126.971 26.7628 127.52 27.0702 128.31 27.2678C129.1 27.4654 130.242 27.5642 131.735 27.5642C133.052 27.5642 134.062 27.4983 134.765 27.3666C135.467 27.2129 135.95 26.9824 136.214 26.675C136.477 26.3676 136.609 25.9725 136.609 25.4895C136.609 24.8089 136.378 24.3149 135.917 24.0075C135.478 23.7001 134.699 23.4477 133.579 23.2501L127.388 22.3609C126.071 22.1413 124.94 21.7791 123.996 21.2741C123.074 20.7692 122.36 20.0995 121.855 19.2653C121.35 18.409 121.098 17.3771 121.098 16.1696C121.098 15.3353 121.273 14.512 121.625 13.6997C121.998 12.8874 122.58 12.1629 123.37 11.5262C124.16 10.8675 125.192 10.3406 126.466 9.94543C127.761 9.55025 129.342 9.35266 131.208 9.35266C133.469 9.35266 135.324 9.68198 136.774 10.3406C138.244 10.9773 139.342 11.8884 140.067 13.074C140.791 14.2376 141.154 15.5878 141.154 17.1247V17.3223H136.181V16.8612C136.181 16.1587 136.027 15.5878 135.72 15.1487C135.434 14.7096 134.896 14.3913 134.106 14.1937C133.316 13.9741 132.185 13.8644 130.714 13.8644C129.528 13.8644 128.595 13.9412 127.915 14.0949C127.256 14.2486 126.784 14.4791 126.499 14.7865C126.213 15.0938 126.071 15.489 126.071 15.972C126.071 16.3892 126.158 16.7405 126.334 17.0259C126.51 17.2893 126.784 17.4979 127.157 17.6516C127.531 17.8053 128.025 17.937 128.639 18.0468L134.831 19.0347C136.477 19.2982 137.783 19.7263 138.749 20.3191C139.737 20.9119 140.451 21.6364 140.89 22.4926C141.329 23.3269 141.549 24.249 141.549 25.2589C141.549 26.4445 141.219 27.5642 140.561 28.618C139.902 29.6499 138.848 30.4842 137.399 31.1209C135.95 31.7576 134.062 32.0759 131.735 32.0759ZM155.087 25.6541H145.273V21.2083H154.56C155.943 21.2083 156.953 20.9668 157.59 20.4838C158.248 19.9788 158.577 19.0347 158.577 17.6516C158.577 16.3123 158.248 15.3902 157.59 14.8853C156.953 14.3803 155.943 14.1278 154.56 14.1278H145.273V9.68198H155.087C156.799 9.68198 158.281 10.0003 159.533 10.637C160.784 11.2517 161.75 12.1519 162.431 13.3375C163.133 14.523 163.484 15.9611 163.484 17.6516C163.484 19.3421 163.133 20.7911 162.431 21.9986C161.75 23.1842 160.784 24.0953 159.533 24.732C158.281 25.3467 156.799 25.6541 155.087 25.6541ZM148.5 31.7466H143.56V9.68198H148.5V31.7466ZM169.287 31.7466H163.755L173.404 9.68198H180.451L190.166 31.7466H184.502L178.442 17.6186L177.092 14.1937H176.73L175.38 17.6186L169.287 31.7466ZM184.568 26.8726H169.024V22.4268H184.568V26.8726ZM202.614 32.0759C200.199 32.0759 198.103 31.6149 196.324 30.6928C194.568 29.7487 193.207 28.4314 192.241 26.7409C191.297 25.0284 190.825 23.0195 190.825 20.7143C190.825 18.409 191.297 16.4111 192.241 14.7206C193.207 13.0081 194.568 11.6908 196.324 10.7687C198.103 9.82468 200.199 9.35266 202.614 9.35266C204.92 9.35266 206.907 9.71491 208.575 10.4394C210.266 11.1639 211.572 12.1958 212.494 13.5351C213.416 14.8743 213.877 16.488 213.877 18.3761V18.8701H208.377V18.3761C208.377 16.9271 207.927 15.8513 207.027 15.1487C206.149 14.4462 204.711 14.0949 202.713 14.0949C201.11 14.0949 199.815 14.3144 198.827 14.7535C197.861 15.1707 197.159 15.8623 196.719 16.8283C196.28 17.7723 196.061 19.0677 196.061 20.7143C196.061 22.3389 196.28 23.6343 196.719 24.6003C197.159 25.5663 197.861 26.2689 198.827 26.7079C199.815 27.1251 201.11 27.3337 202.713 27.3337C204.711 27.3337 206.149 26.9824 207.027 26.2798C207.927 25.5773 208.377 24.5015 208.377 23.0525V22.5585H213.877V23.0525C213.877 24.9186 213.416 26.5323 212.494 27.8935C211.572 29.2328 210.266 30.2646 208.575 30.9891C206.907 31.7136 204.92 32.0759 202.614 32.0759ZM220.958 31.7466H216.018V9.68198H220.958V31.7466ZM234.69 31.7466H217.401V27.3007H234.69V31.7466ZM234.196 22.8549H217.401V18.442H234.196V22.8549ZM234.69 14.1278H217.401V9.68198H234.69V14.1278Z" fill="black"/>
<path d="M87.7193 52.3857V40.7479H83.6669V38.3398H94.7224V40.7696H90.6571V52.4073L87.7193 52.3857Z" fill="black"/>
<path d="M95.7333 39.3145C95.7238 39.0119 95.8047 38.7135 95.9654 38.4573C96.1262 38.2011 96.3596 37.9988 96.6357 37.8764C96.9118 37.754 97.2181 37.7171 97.5153 37.7702C97.8125 37.8234 98.0872 37.9643 98.304 38.1749C98.5209 38.3855 98.6701 38.6561 98.7325 38.9523C98.795 39.2484 98.7679 39.5565 98.6546 39.837C98.5414 40.1176 98.3472 40.3579 98.0969 40.5272C97.8466 40.6964 97.5516 40.7869 97.2497 40.787C97.053 40.7928 96.8571 40.759 96.6737 40.6877C96.4902 40.6163 96.3228 40.5089 96.1815 40.3716C96.0401 40.2343 95.9277 40.0701 95.8507 39.8885C95.7737 39.7069 95.7338 39.5117 95.7333 39.3145ZM95.8327 41.9348H98.6711V52.3858H95.8111L95.8327 41.9348Z" fill="black"/>
<path d="M100.533 41.9347H103.277V43.8188H103.333C103.929 42.4804 104.987 41.7788 106.59 41.7788C108.906 41.7788 110.206 43.2427 110.206 45.6768V52.3727H107.368V46.2832C107.368 44.9189 106.737 44.1176 105.445 44.1176C104.154 44.1176 103.372 45.0531 103.372 46.4174V52.3641H100.533V41.9347Z" fill="black"/>
<path d="M118.492 41.9347H121.711L117.732 46.4174L121.905 52.3857H118.631L115.645 48.1368L114.907 48.9338V52.3987H112.068V38.3398H114.907V46.1359H114.945L118.492 41.9347Z" fill="black"/>
<path d="M131.743 49.1895C131.431 51.2251 129.543 52.5678 126.99 52.5678C123.802 52.5678 121.853 50.5321 121.853 47.2101C121.853 43.8882 123.811 41.7529 126.882 41.7529C129.954 41.7529 131.829 43.7669 131.829 46.9503V47.8165H124.644V47.9941C124.622 48.3184 124.667 48.644 124.779 48.9494C124.89 49.2548 125.064 49.5333 125.29 49.7667C125.516 50.0001 125.788 50.1831 126.089 50.3038C126.39 50.4245 126.714 50.4801 127.038 50.4672C128.057 50.4672 128.874 49.9821 129.137 49.1938L131.743 49.1895ZM124.679 46.0667H129.103C129.042 44.7327 128.17 43.8579 126.917 43.8579C126.329 43.8555 125.763 44.0864 125.344 44.5002C124.925 44.9139 124.686 45.477 124.679 46.0667Z" fill="black"/>
<path d="M133.289 41.9345H136.028V43.8186H136.089C136.447 42.5192 137.342 41.8089 138.569 41.8089C138.842 41.8021 139.115 41.8386 139.376 41.9172V44.4033C139.045 44.2878 138.695 44.232 138.344 44.2387C136.944 44.2387 136.128 45.1049 136.128 46.5688V52.3682H133.289V41.9345Z" fill="black"/>
<path d="M150.419 52.3857V45.9799H142.72V52.3857H140.992V38.3398H142.72V44.4034H150.419V38.3398H152.147V52.4073L150.419 52.3857Z" fill="black"/>
<path d="M162.93 52.3856H161.328V50.6965H161.289C160.667 51.8789 159.634 52.4809 158.079 52.4809C155.875 52.4809 154.579 51.0473 154.579 48.7475V42.2378H156.273V48.44C156.273 50.0858 157.042 50.9737 158.606 50.9737C160.248 50.9737 161.241 49.8433 161.241 48.1151V42.2378H162.93V52.3856Z" fill="black"/>
<path d="M166.862 50.6706H166.823V52.403H165.207V38.3398H166.901V43.9183H166.94C167.272 43.363 167.749 42.9085 168.319 42.6033C168.888 42.2982 169.53 42.154 170.176 42.1859C172.724 42.1859 174.444 44.2518 174.444 47.3486C174.444 50.4453 172.716 52.5156 170.145 52.5156C169.481 52.5469 168.821 52.3905 168.24 52.0644C167.66 51.7382 167.182 51.2553 166.862 50.6706ZM166.888 47.3139C166.888 49.5012 168.076 50.9824 169.817 50.9824C171.558 50.9824 172.712 49.5488 172.712 47.3139C172.712 45.0791 171.567 43.6498 169.817 43.6498C168.067 43.6498 166.888 45.144 166.888 47.3139Z" fill="black"/>
<path d="M68.9046 46.2225C68.906 46.8733 68.7843 47.5185 68.5461 48.1239C68.3258 48.6985 68.0054 49.2294 67.5999 49.6917C67.2144 50.1261 66.7514 50.4845 66.2347 50.7485C65.7361 51.0045 65.1835 51.1367 64.6233 51.134C64.2446 51.1396 63.8664 51.1033 63.4957 51.0257C63.2049 50.969 62.9239 50.8698 62.6619 50.7312C62.4472 50.6185 62.2518 50.4723 62.083 50.2981C61.9203 50.1334 61.7755 49.952 61.6509 49.7567L63.5864 41.285C63.5864 41.1724 63.6296 41.0728 63.6469 40.9905C63.6643 40.9079 63.673 40.8237 63.6728 40.7393C63.6851 40.5896 63.6551 40.4396 63.5864 40.3062C63.524 40.2098 63.4356 40.1332 63.3315 40.0853C63.2058 40.0361 63.0731 40.0068 62.9384 39.9987L62.4675 39.9597L62.5712 39.5049L65.3231 39.3403L65.3966 39.4529L64.2604 44.4034H64.2863C64.6455 44.0735 65.0517 43.799 65.4916 43.5892C65.8048 43.4445 66.1449 43.3678 66.4896 43.364C66.826 43.3475 67.1616 43.4084 67.4709 43.5421C67.7802 43.6757 68.0548 43.8785 68.2739 44.1349C68.7252 44.7334 68.9488 45.4736 68.9046 46.2225ZM67.3666 46.2571C67.367 45.99 67.3439 45.7233 67.2975 45.4602C67.2616 45.2233 67.181 44.9955 67.0599 44.7889C66.9437 44.6055 66.7812 44.4561 66.589 44.3558C66.3611 44.2377 66.1065 44.181 65.8502 44.1912C65.6823 44.191 65.5156 44.2203 65.3577 44.2778C65.1912 44.3447 65.0308 44.4259 64.8782 44.5204C64.7252 44.6161 64.5806 44.7247 64.4461 44.8452L64.0703 45.1874L63.0853 49.6008C63.1089 49.7187 63.1559 49.8306 63.2235 49.9299C63.298 50.0509 63.3931 50.1579 63.5043 50.2461C63.6457 50.3585 63.8049 50.4463 63.9752 50.506C64.1604 50.568 64.3546 50.5987 64.5498 50.5969C64.9462 50.5955 65.333 50.4748 65.6601 50.2504C66.0199 50.0026 66.3244 49.6825 66.5544 49.3106C66.8331 48.8656 67.0387 48.3786 67.1636 47.8683C67.2995 47.3421 67.3678 46.8007 67.3666 46.2571Z" fill="black"/>
<path d="M74.7716 49.8258H74.7284C74.3293 50.1723 73.8949 50.4757 73.4323 50.731C72.9959 50.9563 72.5104 51.0694 72.0196 51.0601C71.8115 51.0688 71.6038 51.0349 71.4092 50.9604C71.2146 50.8859 71.0371 50.7725 70.8877 50.627C70.7441 50.486 70.6315 50.3164 70.5571 50.1292C70.4827 49.942 70.4482 49.7413 70.4557 49.5399C70.4557 49.423 70.4557 49.2801 70.4859 49.1068C70.5162 48.9336 70.555 48.6997 70.6285 48.3749L71.2074 46.0404C71.2636 45.8195 71.3068 45.6073 71.3327 45.4557C71.3626 45.2971 71.3785 45.1363 71.3802 44.9749C71.4035 44.778 71.3544 44.5794 71.242 44.4162C71.0776 44.3036 70.8781 44.2544 70.6803 44.2776C70.5342 44.2809 70.389 44.3027 70.2483 44.3426L69.8552 44.4422L69.9848 43.9701C70.3173 43.8157 70.6593 43.6826 71.0087 43.5716C71.2386 43.4921 71.4786 43.4455 71.7215 43.433C72.0328 43.412 72.3407 43.5077 72.5855 43.7016C72.688 43.8085 72.7667 43.936 72.8166 44.0755C72.8665 44.2151 72.8864 44.3637 72.875 44.5115C72.8733 44.6333 72.8632 44.7549 72.8448 44.8753C72.8233 45.0314 72.793 45.1861 72.754 45.3387L72.0801 48.0673C72.0282 48.2796 71.985 48.4745 71.9505 48.6564C71.9202 48.7989 71.9029 48.9439 71.8986 49.0895C71.8823 49.3735 71.9699 49.6538 72.1449 49.8778C72.2328 49.9788 72.343 50.058 72.4667 50.1091C72.5904 50.1602 72.7243 50.1819 72.8577 50.1723C73.2284 50.1697 73.5929 50.0775 73.9205 49.9037C74.2881 49.7119 74.6234 49.4635 74.9142 49.1674L76.1454 43.576L77.4415 43.485L77.5322 43.5976L76.2362 49.449C76.0788 50.2078 75.8353 50.946 75.5104 51.6492C75.2577 52.1975 74.9095 52.6961 74.4821 53.1218C74.1036 53.5023 73.6485 53.7976 73.1472 53.988C72.6229 54.173 72.0698 54.2625 71.5141 54.2522C71.1762 54.2604 70.8385 54.2299 70.5075 54.1612C70.2978 54.1169 70.0985 54.0332 69.92 53.9144C69.7929 53.8341 69.6922 53.7181 69.6305 53.5809C69.58 53.4617 69.5535 53.3336 69.5527 53.2041C69.5503 52.9981 69.619 52.7976 69.7471 52.6367C69.8144 52.5537 69.9004 52.4879 69.9981 52.445C70.0958 52.4021 70.2023 52.3831 70.3088 52.3898C70.479 52.3855 70.6455 52.4406 70.7797 52.5457C70.9002 52.6448 71.0051 52.7617 71.0907 52.8922C71.1854 53.029 71.2679 53.1739 71.337 53.3253C71.4119 53.4957 71.4724 53.6299 71.5184 53.7281H71.6956C72.0063 53.7222 72.3123 53.6514 72.5942 53.5202C72.9253 53.3683 73.22 53.1467 73.4582 52.8706C73.7746 52.5007 74.0325 52.0844 74.2229 51.6362C74.4751 51.056 74.6592 50.4485 74.7716 49.8258Z" fill="black"/>
</g>
<defs>
<clipPath id="clip0_51_337">
<rect width="236.095" height="59" fill="white"/>
</clipPath>
</defs>
</svg>
