<svg width="1276" height="503" viewBox="0 0 1276 503" fill="none" xmlns="http://www.w3.org/2000/svg">
<g opacity="0.12">
<path d="M1541 768H-265V-384H1541V768ZM-262.664 765.627H1538.66V-381.621H-262.664V765.627Z" fill="#231F20"/>
<path d="M1539.83 708.145H-263.832V710.524H1539.83V708.145Z" fill="#231F20"/>
<path d="M1539.83 650.664H-263.832V653.043H1539.83V650.664Z" fill="#231F20"/>
<path d="M1539.83 593.183H-263.832V595.562H1539.83V593.183Z" fill="#231F20"/>
<path d="M1539.83 535.701H-263.832V538.08H1539.83V535.701Z" fill="#231F20"/>
<path d="M1539.83 478.22H-263.832V480.599H1539.83V478.22Z" fill="#231F20"/>
<path d="M1539.83 420.739H-263.832V423.118H1539.83V420.739Z" fill="#231F20"/>
<path d="M1539.83 363.257H-263.832V365.636H1539.83V363.257Z" fill="#231F20"/>
<path d="M1539.83 305.776H-263.832V308.155H1539.83V305.776Z" fill="#231F20"/>
<path d="M1539.83 248.295H-263.832V250.674H1539.83V248.295Z" fill="#231F20"/>
<path d="M1539.83 190.813H-263.832V193.193H1539.83V190.813Z" fill="#231F20"/>
<path d="M1539.83 133.332H-263.832V135.711H1539.83V133.332Z" fill="#231F20"/>
<path d="M1539.83 75.8506H-263.832V78.2298H1539.83V75.8506Z" fill="#231F20"/>
<path d="M1539.83 18.3693H-263.832V20.7485H1539.83V18.3693Z" fill="#231F20"/>
<path d="M1539.83 -39.112H-263.832V-36.7328H1539.83V-39.112Z" fill="#231F20"/>
<path d="M1539.83 -96.5934H-263.832V-94.2142H1539.83V-96.5934Z" fill="#231F20"/>
<path d="M1539.83 -154.075H-263.832V-151.696H1539.83V-154.075Z" fill="#231F20"/>
<path d="M1539.83 -211.556H-263.832V-209.177H1539.83V-211.556Z" fill="#231F20"/>
<path d="M1539.83 -269.037H-263.832V-266.658H1539.83V-269.037Z" fill="#231F20"/>
<path d="M1539.83 -326.519H-263.832V-324.14H1539.83V-326.519Z" fill="#231F20"/>
<path d="M1486.34 -382.81H1484.01V766.816H1486.34V-382.81Z" fill="#231F20"/>
<path d="M1431.69 -382.81H1429.35V766.816H1431.69V-382.81Z" fill="#231F20"/>
<path d="M1377.03 -382.81H1374.7V766.816H1377.03V-382.81Z" fill="#231F20"/>
<path d="M1322.38 -382.81H1320.04V766.816H1322.38V-382.81Z" fill="#231F20"/>
<path d="M1267.71 -382.81H1265.38V766.816H1267.71V-382.81Z" fill="#231F20"/>
<path d="M1213.06 -382.81H1210.72V766.816H1213.06V-382.81Z" fill="#231F20"/>
<path d="M1158.4 -382.81H1156.07V766.816H1158.4V-382.81Z" fill="#231F20"/>
<path d="M1103.75 -382.81H1101.41V766.816H1103.75V-382.81Z" fill="#231F20"/>
<path d="M1049.09 -382.81H1046.75V766.816H1049.09V-382.81Z" fill="#231F20"/>
<path d="M994.435 -382.81H992.099V766.816H994.435V-382.81Z" fill="#231F20"/>
<path d="M939.779 -382.81H937.443V766.816H939.779V-382.81Z" fill="#231F20"/>
<path d="M885.123 -382.81H882.787V766.816H885.123V-382.81Z" fill="#231F20"/>
<path d="M830.467 -382.81H828.131V766.816H830.467V-382.81Z" fill="#231F20"/>
<path d="M775.811 -382.81H773.475V766.816H775.811V-382.81Z" fill="#231F20"/>
<path d="M721.155 -382.81H718.819V766.816H721.155V-382.81Z" fill="#231F20"/>
<path d="M666.499 -382.81H664.163V766.816H666.499V-382.81Z" fill="#231F20"/>
<path d="M611.837 -382.81H609.501V766.816H611.837V-382.81Z" fill="#231F20"/>
<path d="M557.181 -382.81H554.845V766.816H557.181V-382.81Z" fill="#231F20"/>
<path d="M502.525 -382.81H500.189V766.816H502.525V-382.81Z" fill="#231F20"/>
<path d="M447.869 -382.81H445.533V766.816H447.869V-382.81Z" fill="#231F20"/>
<path d="M393.213 -382.81H390.877V766.816H393.213V-382.81Z" fill="#231F20"/>
<path d="M338.557 -382.81H336.221V766.816H338.557V-382.81Z" fill="#231F20"/>
<path d="M283.901 -382.81H281.565V766.816H283.901V-382.81Z" fill="#231F20"/>
<path d="M229.245 -382.81H226.909V766.816H229.245V-382.81Z" fill="#231F20"/>
<path d="M174.589 -382.81H172.253V766.816H174.589V-382.81Z" fill="#231F20"/>
<path d="M119.933 -382.81H117.597V766.816H119.933V-382.81Z" fill="#231F20"/>
<path d="M65.2775 -382.81H62.9415V766.816H65.2775V-382.81Z" fill="#231F20"/>
<path d="M10.6215 -382.81H8.28549V766.816H10.6215V-382.81Z" fill="#231F20"/>
<path d="M-44.0345 -382.81H-46.3705V766.816H-44.0345V-382.81Z" fill="#231F20"/>
<path d="M-98.6961 -382.81H-101.032V766.816H-98.6961V-382.81Z" fill="#231F20"/>
<path d="M-153.352 -382.81H-155.688V766.816H-153.352V-382.81Z" fill="#231F20"/>
<path d="M-208.008 -382.81H-210.344V766.816H-208.008V-382.81Z" fill="#231F20"/>
</g>
</svg>
