<svg width="311" height="311" viewBox="0 0 311 311" fill="none" xmlns="http://www.w3.org/2000/svg">
<path d="M252.169 162.795C246.219 160.629 228.76 156.585 210.182 153.674C228.638 149.161 246.038 143.493 251.835 140.79C265.362 134.483 271.24 118.333 264.932 104.807C258.625 91.2804 242.475 85.4023 228.949 91.7096C222.997 94.4849 207.043 104.465 191.408 116.037C201.651 99.3576 210.357 82.3118 212.626 76.0784C217.741 62.025 210.497 46.4892 196.443 41.3741C182.39 36.2591 166.854 43.5035 161.739 57.557C159.553 63.5637 155.462 81.327 152.566 100.039C148.053 81.5825 142.386 64.1821 139.683 58.3852C133.375 44.859 117.225 38.9808 103.699 45.2882C90.1727 51.5955 84.2945 67.7457 90.6019 81.2719C93.4132 87.3007 103.687 103.682 115.48 119.59C98.837 109.425 81.8479 100.739 75.7278 98.5116C61.6743 93.3966 46.1385 100.641 41.0235 114.695C35.9084 128.748 43.1529 144.284 57.2064 149.399C63.1564 151.564 80.7291 155.65 99.3274 158.505C81.2731 162.971 64.4498 168.464 58.8074 171.095C45.2813 177.402 39.4031 193.552 45.7104 207.079C52.0178 220.605 68.168 226.483 81.6941 220.176C87.2592 217.581 101.775 208.553 116.508 197.872C107.292 213.32 99.6314 228.373 97.5483 234.096C92.4332 248.15 99.6777 263.685 113.731 268.8C127.785 273.915 143.32 266.671 148.435 252.618C150.58 246.724 154.563 229.435 157.469 211.048C161.936 229.102 167.428 245.925 170.059 251.568C176.367 265.094 192.517 270.972 206.043 264.665C219.569 258.357 225.447 242.207 219.14 228.681C216.581 223.193 207.79 209.084 197.351 194.568C212.836 203.861 228.022 211.506 233.745 213.59C247.799 218.705 263.335 211.46 268.45 197.407C273.565 183.353 266.222 167.91 252.169 162.795Z" fill="#5C5ED7"/>
</svg>
